<svg xmlns="http://www.w3.org/2000/svg" width="769" height="768" viewBox="0 0 769 768"><path fill="#1f7f5a" fill-rule="evenodd" d="M150.259 20.001c-8.171 2.149-14.028 5.283-20.475 10.958-4.696 4.133-6.414 6.551-49.994 70.363A48911 48911 0 0 1 39.664 160c-6.602 9.625-13.501 20.425-15.331 24-6.88 13.442-6.38-7.031-6.393 262-.011 241.115.009 243.577 2.01 251.354 3.174 12.331 8.218 20.809 18.55 31.178 9.902 9.937 17.467 14.557 30.5 18.626l7.5 2.342h616l9.288-3.244c23.919-8.353 40.266-25.857 46.935-50.256 1.68-6.145 1.777-19.803 1.777-250 0-229.098-.104-243.884-1.756-250-.966-3.575-3.035-9.019-4.599-12.097-2.652-5.222-35.38-53.794-79.444-117.903-24.082-35.037-28.42-39.556-43.499-45.321L615.5 18.5l-229-.201c-222.296-.196-229.212-.146-236.241 1.702m7.59 28.429c-5.785 1.506-9.028 3.593-12.118 7.799-3.555 4.839-79.112 115.277-81.091 118.525-.611 1.004 20.797 1.204 107.03 1l107.795-.254 10.661-63.5c5.863-34.925 10.448-63.853 10.187-64.285-.82-1.358-137.127-.673-142.464.715m171.722 1.353c-.315 1.494-3.508 20.492-7.096 42.217a39977 39977 0 0 1-10.088 60.827c-1.962 11.73-3.409 21.484-3.217 21.676s34.094.453 75.339.58l74.991.231-.317-2.407c-.175-1.324-3.242-19.507-6.816-40.407-13.211-77.254-14.356-84.016-14.362-84.766-.003-.421-24.273-.744-53.933-.717l-53.928.049zm139.178-2.119c-1.209.334-1.594 1.156-1.246 2.659.277 1.198 2.72 15.227 5.428 31.177s7.431 43.381 10.496 60.958S489 174.773 489 175.208s48.375.792 107.5.792 107.5-.263 107.5-.584-18.763-28.005-41.695-61.521l-41.694-60.938-5.556-2.729L609.5 47.5l-69.5-.16c-38.225-.088-70.288.058-71.251.324M305 254.607c0 51.592.097 54.571 1.75 53.947.962-.364 8.48-4.285 16.706-8.714 19.954-10.745 18.929-10.831 42.742 3.575l17.698 10.707 18.273-11.061c23.371-14.147 21.427-14.032 43.36-2.561 8.938 4.675 16.526 8.5 16.861 8.5s.61-24.525.61-54.5V200H305zM48.405 207.105c-1.862 2.058-1.905 7.493-1.905 241.75V688.5l2.357 5.844c4.576 11.345 15.362 21.468 26.674 25.034 4.766 1.502 30.323 1.639 308.316 1.646 303.113.009 303.12.008 309.215-2.045 14.051-4.733 22.951-14.149 27.328-28.911 1.46-4.926 1.61-27.479 1.61-242.615V210.27l-2.073-2.635-2.072-2.635H492v65.55c0 70.827.197 68.141-5.372 73.344-1.754 1.638-4.136 2.544-7.548 2.872-4.813.463-5.816.042-28.926-12.143C436.988 327.68 425.969 322 425.669 322s-8.541 4.808-18.313 10.685c-24.582 14.783-22.341 14.768-46.555.312l-18.699-11.164-22.801 12.195c-24.637 13.177-29.13 14.663-35.057 11.598-1.697-.878-4.022-2.91-5.165-4.515-2.055-2.886-2.079-3.681-2.079-69.515V205H50.31zM373 378.63c-22.333 3.199-37.764 9.007-53.5 20.139-10.207 7.221-16.815 13.481-23.882 22.628-17.443 22.577-24.898 44.126-24.944 72.103-.045 27.786 8.279 51.876 31.791 92 21.505 36.699 67.21 100.313 75.109 104.539 3.696 1.977 10.385 1.689 14.287-.616 5.399-3.189 38.529-48.94 59.343-81.949 14.104-22.369 20.17-33.023 28.746-50.496 12.586-25.642 16.253-39.746 16.371-62.978.04-7.975-.489-17.425-1.177-21-4.619-23.998-14.412-43.169-30.566-59.834-13.854-14.292-27.871-23.309-45.275-29.125-14.234-4.758-34.406-7.114-46.303-5.411m-.844 28.38c-21.783 3.055-43.621 16.383-56.767 34.646-12.615 17.526-18.614 40.213-16.28 61.569 3.089 28.272 25.737 71.027 71.655 135.275 6.29 8.8 12.006 16.6 12.704 17.332 1.416 1.488 4.362-2.474 26.273-35.332 33.525-50.274 51.113-83.168 56.41-105.5 2.405-10.14 2.892-28.539.993-37.5-4.786-22.581-16.126-41.563-31.92-53.433-18.548-13.939-41.343-20.105-63.068-17.057M376 443.69c-16.357 2.735-31.654 14.038-38.887 28.734-3.967 8.058-5.063 13.268-5.067 24.076-.011 28.494 23.185 51.476 51.954 51.476 14.545 0 25.844-4.782 36.519-15.457 10.81-10.81 15.447-21.927 15.469-37.087.021-14.252-5.293-26.782-15.745-37.123-11.414-11.293-29.128-17.146-44.243-14.619m.703 28.696c-7.168 2.663-11.372 6.238-14.247 12.115-7.754 15.847 1.679 33.419 18.893 35.196 14.637 1.51 26.651-9.275 26.651-23.925 0-9.655-4.723-17.485-13.176-21.842-5.037-2.597-13.376-3.307-18.121-1.544"/></svg>